<svg xmlns="http://www.w3.org/2000/svg" aria-hidden="true" style="position:absolute;width:0;height:0;overflow:hidden"><defs><symbol id="icon-check" viewBox="0 0 32 32"><path d="M4 1h24a3 3 0 0 1 3 3v24a3 3 0 0 1-3 3H4a3 3 0 0 1-3-3V4a3 3 0 0 1 3-3z"/><path stroke-width="2" d="M4 1h24a3 3 0 0 1 3 3v24a3 3 0 0 1-3 3H4a3 3 0 0 1-3-3V4a3 3 0 0 1 3-3z"/><path d="M22.891 8.51a1.832 1.832 0 0 1 2.558.02 1.855 1.855 0 0 1 .068 2.571L15.728 23.41a1.845 1.845 0 0 1-1.314.591 1.83 1.83 0 0 1-1.336-.542l-6.492-6.527a1.863 1.863 0 0 1-.451-2.046 1.85 1.85 0 0 1 1.017-1.022 1.823 1.823 0 0 1 1.438.026c.225.101.429.247.597.429l5.137 5.163 8.521-10.915a.628.628 0 0 1 .049-.054h-.002z"/></symbol><symbol id="icon-close" viewBox="0 0 32 32"><path d="M32 16c0 8.837-7.163 16-16 16S0 24.837 0 16 7.163 0 16 0s16 7.163 16 16z"/><path stroke-width="1.333" d="M31.333 16c0 8.468-6.865 15.333-15.333 15.333S.667 24.468.667 16 7.532.667 16 .667 31.333 7.532 31.333 16z"/><path d="m21.333 11.741-1.074-1.074L16 14.926l-4.259-4.259-1.074 1.074L14.926 16l-4.259 4.259 1.074 1.074L16 17.074l4.259 4.259 1.074-1.074L17.074 16l4.259-4.259z"/></symbol><symbol id="icon-email" viewBox="0 0 32 32"><path d="M28 4H4a2.996 2.996 0 0 0-2.985 3L1 25c0 1.65 1.35 3 3 3h24c1.65 0 3-1.35 3-3V7c0-1.65-1.35-3-3-3zm-.6 6.375-10.605 6.63c-.48.3-1.11.3-1.59 0L4.6 10.375c-.375-.24-.6-.645-.6-1.08C4 8.29 5.095 7.69 5.95 8.215L16 14.5l10.05-6.285c.855-.525 1.95.075 1.95 1.08 0 .435-.225.84-.6 1.08z"/></symbol><symbol id="icon-tel" viewBox="0 0 32 32"><path d="m28.865 21.822-4.525-.517a3.543 3.543 0 0 0-2.921 1.015l-3.278 3.278A26.8 26.8 0 0 1 6.402 13.859l3.296-3.296a3.545 3.545 0 0 0 1.015-2.921l-.517-4.489A3.566 3.566 0 0 0 6.651 0H3.569C1.556 0-.118 1.675.006 3.687.95 18.9 13.117 31.049 28.312 31.993c2.013.125 3.687-1.55 3.687-3.563v-3.082c.018-1.799-1.336-3.313-3.135-3.527z"/></symbol><symbol id="icon-user" viewBox="0 0 32 32"><path d="M16 16c2.947 0 5.333-2.387 5.333-5.333S18.946 5.334 16 5.334c-2.947 0-5.333 2.387-5.333 5.333S13.054 16 16 16zm0 2.667c-3.56 0-10.667 1.787-10.667 5.333v1.333c0 .733.6 1.333 1.333 1.333h18.667c.733 0 1.333-.6 1.333-1.333V24c0-3.547-7.107-5.333-10.667-5.333z"/></symbol></defs></svg>